<!DOCTYPE svg PUBLIC "-//W3C//DTD SVG 20010904//EN" "http://www.w3.org/TR/2001/REC-SVG-20010904/DTD/svg10.dtd">
<svg version="1.0" xmlns="http://www.w3.org/2000/svg" width="1200px" height="726px" viewBox="0 0 12000 7260" preserveAspectRatio="xMidYMid meet">
<g id="layer101" fill="#000100" stroke="none">
<path d="M2920 6609 c-229 -13 -535 -47 -769 -85 -260 -42 -573 -108 -621 -131 -99 -47 -138 -103 -146 -211 -3 -37 -7 -77 -10 -89 -4 -19 -157 -161 -297 -273 -31 -25 -56 -48 -57 -52 0 -4 33 -24 73 -44 95 -48 310 -164 320 -174 8 -7 -226 -216 -314 -280 -26 -19 -49 -40 -49 -46 0 -6 15 -15 33 -21 17 -5 114 -45 213 -87 l181 -78 -126 -123 c-69 -67 -147 -140 -173 -161 -25 -22 -49 -44 -52 -51 -3 -7 69 -38 200 -85 118 -42 203 -78 202 -84 -4 -16 -250 -227 -304 -262 -24 -15 -43 -31 -41 -36 1 -4 72 -34 157 -66 85 -32 181 -69 213 -82 l57 -24 -107 -86 c-60 -47 -139 -105 -176 -128 -37 -24 -66 -47 -64 -53 1 -5 41 -21 87 -35 253 -75 310 -94 304 -103 -9 -15 -269 -245 -298 -265 -38 -24 -21 -37 94 -68 52 -14 134 -41 183 -59 l87 -33 -155 -130 c-86 -71 -160 -130 -166 -132 -26 -10 0 -31 84 -66 165 -70 247 -109 247 -116 0 -3 -48 -48 -108 -98 -181 -154 -228 -200 -217 -210 6 -5 55 -24 110 -42 170 -56 265 -92 265 -100 0 -5 -52 -63 -116 -130 -64 -66 -115 -122 -113 -123 2 -2 70 -30 152 -62 81 -33 156 -68 166 -80 12 -12 37 -90 65 -197 69 -263 120 -406 193 -537 44 -80 215 -254 318 -324 147 -99 302 -126 455 -78 191 59 271 137 371 360 21 48 41 85 45 84 5 -1 13 -19 20 -40 21 -71 112 -273 144 -323 73 -114 164 -158 346 -167 96 -5 121 -3 180 15 119 37 238 144 305 275 45 87 65 143 140 382 114 361 145 500 184 820 37 304 72 510 95 554 13 27 41 52 92 85 117 75 129 77 513 86 187 5 531 14 765 20 234 6 925 22 1535 35 611 14 1269 30 1462 36 194 6 359 9 366 6 7 -3 19 -25 26 -48 19 -65 85 -161 157 -229 89 -83 131 -102 230 -108 72 -4 89 -1 138 21 61 28 153 109 189 166 12 19 31 60 42 90 12 31 25 55 30 54 5 -1 20 -35 32 -75 32 -101 70 -166 121 -205 62 -47 168 -77 272 -78 75 0 91 3 137 29 28 15 65 42 81 60 45 46 99 141 117 205 9 31 29 74 45 97 34 47 46 122 56 345 l7 138 -53 81 c-49 75 -54 86 -60 159 -8 89 -27 128 -91 186 -57 51 -173 105 -226 105 -48 0 -55 -11 -18 -28 14 -7 39 -33 55 -59 36 -56 39 -112 10 -160 -16 -27 -24 -32 -47 -28 -16 3 -64 12 -108 20 -44 8 -97 15 -117 15 -50 0 -68 21 -68 81 0 57 23 99 81 144 21 17 38 33 39 38 1 26 -197 -12 -252 -48 -20 -14 -41 -25 -46 -25 -25 0 -102 -109 -102 -146 0 -12 -6 -15 -22 -11 -13 3 -84 11 -158 17 -74 7 -140 14 -147 16 -7 1 -17 22 -23 46 -22 81 -76 182 -121 224 -83 78 -164 138 -225 165 -170 77 -418 144 -754 204 -80 14 -280 52 -445 85 -393 77 -496 96 -640 115 -66 9 -210 32 -320 50 -110 19 -283 46 -385 60 -102 14 -255 39 -340 56 -98 19 -228 35 -355 45 -110 8 -267 21 -350 29 -82 8 -262 22 -400 30 -424 26 -551 40 -590 69 -24 17 -54 281 -55 476 0 297 44 776 81 879 29 79 29 86 -6 89 -16 2 -111 17 -210 33 -560 94 -1198 129 -1755 98z"/>
</g>
<g id="layer102" fill="#079700" stroke="none">
<path d="M1268 5877 c-58 -50 -104 -96 -101 -100 2 -4 59 -35 125 -68 l121 -61 -6 32 c-4 17 -10 81 -13 143 -4 62 -10 120 -13 129 -5 15 -26 1 -113 -75z"/>
<path d="M1317 5347 l-119 -102 29 -12 c15 -6 80 -34 143 -62 63 -28 116 -49 118 -46 5 4 -37 282 -47 306 -5 15 -27 0 -124 -84z"/>
<path d="M1398 4836 c-60 -57 -108 -106 -108 -109 0 -9 53 -31 168 -71 89 -32 92 -32 92 -12 0 35 -31 260 -38 278 -6 13 -28 -4 -114 -86z"/>
<path d="M1457 4359 c-59 -50 -107 -94 -107 -98 0 -8 261 -113 267 -107 4 4 -43 285 -49 291 -2 3 -52 -36 -111 -86z"/>
<path d="M1536 3903 c-79 -61 -95 -78 -82 -85 9 -5 63 -24 121 -42 88 -28 105 -31 101 -17 -3 9 -10 59 -17 111 -6 52 -14 98 -18 102 -3 4 -51 -27 -105 -69z"/>
<path d="M1589 3489 c-52 -45 -95 -82 -96 -83 -1 -1 45 -20 104 -42 58 -21 111 -41 116 -43 6 -2 7 24 3 70 -12 135 -18 179 -25 179 -4 0 -50 -37 -102 -81z"/>
<path d="M1635 3059 l-99 -83 89 -42 c50 -23 100 -45 113 -49 l23 -7 -7 109 c-12 174 -3 169 -119 72z"/>
<path d="M1670 2618 c-58 -50 -106 -94 -108 -98 -2 -5 52 -26 119 -49 l122 -40 -7 120 c-4 67 -10 129 -14 139 -6 16 -22 5 -112 -72z"/>
<path d="M1751 2186 c-71 -72 -74 -64 32 -106 32 -12 60 -20 63 -18 5 6 -15 143 -25 171 -5 15 -17 7 -70 -47z"/>
</g>
<g id="layer103" fill="#3fd936" stroke="none">
<path d="M2920 6609 c-429 -24 -889 -93 -1367 -204 -27 -6 -31 -25 -6 -25 14 0 14 -2 1 -17 -25 -31 -37 -70 -48 -160 -17 -135 0 -357 60 -758 21 -143 57 -411 80 -595 40 -327 55 -435 125 -905 18 -126 43 -331 55 -455 11 -124 40 -423 65 -665 24 -242 47 -478 50 -525 10 -126 101 -529 171 -752 35 -114 133 -311 188 -380 91 -114 249 -226 357 -254 113 -29 254 -5 348 60 100 70 191 255 302 615 16 52 32 97 34 100 13 13 24 -21 30 -98 4 -47 12 -96 18 -110 6 -14 12 -37 13 -50 7 -59 47 -209 63 -237 15 -26 44 -97 46 -114 0 -3 4 -11 9 -19 5 -8 22 -41 38 -72 55 -109 141 -153 303 -154 83 0 108 4 148 22 56 26 169 131 202 188 13 22 51 121 85 220 144 424 193 628 240 1003 60 470 80 557 145 617 55 52 156 112 220 130 98 29 210 35 933 50 831 17 2269 50 2807 65 545 15 849 13 885 -5 36 -19 60 -52 60 -85 0 -59 140 -233 223 -277 34 -17 131 -20 170 -4 39 15 135 108 157 151 9 19 25 59 35 88 26 80 57 92 182 71 13 -3 21 -20 54 -124 46 -146 84 -187 191 -210 111 -23 156 -20 210 14 75 48 125 129 149 242 6 30 24 72 39 94 35 49 39 67 49 235 5 93 4 143 -3 160 -17 38 -47 70 -86 90 -36 18 -193 71 -265 89 -59 15 -315 49 -425 56 -52 3 -156 12 -230 20 -74 8 -162 15 -194 17 l-59 3 -15 -44 c-28 -83 -147 -176 -250 -197 -41 -8 -42 6 -2 81 24 46 30 69 30 120 0 48 -4 64 -15 69 -9 3 -177 22 -373 41 -196 20 -374 38 -394 42 -36 5 -39 4 -53 -30 -19 -45 -19 -110 0 -162 22 -61 20 -75 -14 -75 -38 0 -91 23 -131 57 -37 30 -85 125 -95 184 -4 24 -14 43 -26 50 -22 12 -796 91 -849 87 -34 -3 -35 -4 -38 -48 -2 -29 7 -72 23 -119 14 -41 25 -78 25 -83 0 -23 -64 -4 -122 35 -71 49 -119 112 -144 192 -20 63 4 55 -264 84 -478 53 -602 63 -615 49 -34 -36 -36 -164 -5 -268 13 -46 13 -50 -6 -50 -36 0 -137 73 -179 131 -41 55 -85 164 -85 208 0 15 -8 21 -32 25 -57 9 -732 76 -764 76 -57 0 -81 -94 -67 -263 5 -54 5 -101 1 -103 -12 -7 -130 79 -163 118 -48 56 -78 135 -83 215 l-5 73 -36 0 c-20 0 -119 9 -221 20 -527 56 -670 70 -683 64 -33 -12 -52 -84 -51 -191 1 -57 -1 -103 -5 -103 -3 1 -33 16 -66 34 -50 27 -70 47 -117 115 -31 45 -62 103 -70 128 -8 28 -21 49 -33 53 -89 35 -818 46 -1012 16 -121 -18 -206 -45 -290 -92 -67 -37 -83 -56 -83 -101 0 -36 25 -70 120 -164 82 -80 123 -132 113 -143 -13 -13 -67 -5 -110 16 -62 31 -178 145 -203 199 -23 53 -26 138 -5 178 36 70 157 143 300 180 89 24 286 50 380 52 97 2 108 7 121 64 17 78 58 147 117 201 53 48 135 99 145 90 2 -3 -1 -20 -9 -38 -7 -18 -14 -68 -14 -110 0 -63 4 -85 24 -122 36 -65 78 -85 203 -96 57 -5 248 -25 426 -44 178 -20 336 -36 352 -36 25 0 31 5 39 38 18 65 77 148 134 185 81 53 113 67 157 67 46 0 51 -13 19 -54 -31 -39 -59 -120 -59 -169 0 -34 6 -49 28 -69 15 -14 36 -28 47 -32 27 -10 887 -97 901 -92 7 3 29 37 50 76 55 105 154 180 237 180 41 0 46 -9 19 -33 -36 -33 -66 -110 -70 -179 -2 -38 0 -68 4 -68 5 0 36 -5 69 -10 80 -13 739 -80 786 -80 34 0 39 4 59 44 43 89 150 154 273 164 53 4 57 3 57 -17 0 -13 -14 -30 -39 -47 -43 -28 -70 -75 -78 -135 l-5 -37 43 -6 c87 -11 835 -86 857 -86 17 0 26 10 38 40 31 76 165 163 253 164 56 1 65 -20 28 -64 -26 -31 -41 -69 -52 -132 -5 -36 -5 -37 27 -42 60 -10 542 -58 634 -63 l91 -6 26 46 c31 53 83 96 164 137 67 34 113 39 113 13 0 -10 -9 -47 -20 -81 -25 -81 -26 -128 -2 -141 34 -18 502 -62 502 -46 0 2 -10 30 -21 61 -25 66 -116 163 -212 225 -89 58 -351 140 -602 189 -115 22 -401 79 -635 125 -234 47 -519 98 -635 114 -115 16 -289 43 -385 60 -96 17 -267 44 -380 61 -113 16 -254 38 -315 49 -60 11 -204 27 -320 36 -115 9 -284 25 -375 35 -91 10 -262 24 -380 30 -239 12 -496 36 -551 50 -80 22 -138 83 -159 168 -33 138 -11 1011 30 1183 22 96 54 156 97 185 l32 21 -222 36 c-291 48 -511 73 -792 92 -244 16 -697 18 -945 4z m7041 -3522 c43 -29 59 -60 59 -121 0 -43 -4 -53 -39 -87 -34 -34 -44 -39 -86 -39 -51 0 -107 27 -125 60 -13 25 -13 116 1 143 34 68 124 89 190 44z m756 -18 c18 -11 40 -34 48 -49 18 -35 19 -96 2 -130 -19 -37 -74 -70 -119 -70 -87 0 -133 55 -126 147 4 44 11 60 38 88 29 30 41 35 78 35 28 0 57 -8 79 -21z m-8261 -203 c3 -8 1 -23 -5 -34 -26 -48 -32 -155 -22 -392 10 -233 11 -240 55 -411 25 -96 58 -211 74 -257 l29 -83 61 83 c56 77 166 193 237 251 82 67 237 142 372 182 18 5 22 16 28 73 34 352 54 462 83 462 4 0 15 -13 24 -28 13 -22 16 -44 11 -102 -4 -59 0 -99 20 -185 14 -60 30 -135 36 -165 l12 -56 87 -28 c177 -57 346 -151 452 -252 l56 -54 42 228 c23 125 56 325 73 446 33 229 32 258 -8 273 -10 4 -28 14 -40 24 -19 14 -21 19 -9 28 20 17 84 -2 119 -35 38 -35 49 -67 42 -123 -34 -289 -134 -876 -160 -937 -8 -19 -19 -34 -25 -34 -6 0 -37 24 -68 53 -80 75 -160 140 -210 171 -119 74 -320 156 -383 156 -34 0 -43 17 -54 103 -9 67 -25 66 -26 -1 -2 -87 -8 -96 -69 -103 -118 -13 -295 -107 -417 -223 -98 -93 -196 -219 -230 -296 -40 -90 -46 -100 -58 -100 -21 0 -79 154 -156 418 -71 245 -70 234 -76 553 -6 329 -3 355 50 388 39 24 46 25 53 7z m614 -188 c31 -34 43 -93 38 -198 -4 -115 -26 -163 -74 -168 -60 -6 -94 64 -94 193 0 45 5 97 11 116 25 74 79 100 119 57z m614 3 c29 -32 45 -91 45 -166 1 -120 -29 -196 -78 -203 -52 -8 -91 79 -91 202 1 109 36 186 85 186 12 0 30 -9 39 -19z"/>
</g>
<g id="layer104" fill="#72e969" stroke="none">
<path d="M11008 3348 c-5 -182 -13 -214 -79 -303 -20 -27 -47 -70 -59 -95 -38 -76 -80 -129 -122 -158 -36 -23 -55 -28 -137 -32 l-96 -5 74 -18 c109 -25 158 -23 213 12 75 48 125 129 149 242 6 30 24 72 40 94 22 30 31 58 38 115 19 157 15 310 -9 310 -4 0 -10 -73 -12 -162z"/>
<path d="M10165 3091 c-31 -14 -43 -27 -54 -57 -18 -54 -70 -144 -82 -144 -6 0 -8 -4 -5 -8 3 -5 -7 -21 -22 -35 -40 -37 -132 -55 -207 -38 -31 7 -59 11 -61 8 -11 -10 81 -61 122 -67 78 -12 128 5 195 68 63 58 85 93 114 180 23 73 47 87 133 79 l67 -7 -30 20 c-38 25 -116 26 -170 1z"/>
<path d="M4975 3060 c-177 -15 -297 -60 -365 -137 -41 -47 -66 -110 -55 -142 8 -27 -73 -619 -109 -786 -47 -224 -198 -710 -257 -830 -38 -78 -108 -146 -187 -183 -49 -23 -69 -27 -147 -26 -131 2 -204 33 -288 125 -36 38 -78 98 -97 136 -42 84 -51 69 -11 -18 28 -63 40 -94 42 -114 0 -5 5 -15 10 -21 5 -6 23 -39 40 -72 36 -73 69 -103 146 -133 83 -33 237 -34 306 -2 56 26 169 131 202 188 13 22 51 121 85 220 144 423 192 627 240 1003 49 383 73 509 106 574 17 32 115 108 187 145 69 35 207 63 311 63 49 0 87 2 85 4 -10 9 -162 13 -244 6z"/>
</g>
<g id="layer105" fill="#39c02f" stroke="none">
<path d="M2400 6563 c-14 -2 -124 -20 -245 -39 -177 -28 -406 -73 -602 -119 -27 -6 -31 -25 -6 -25 14 0 14 -2 1 -17 -25 -31 -37 -70 -48 -160 -17 -135 0 -357 60 -758 21 -143 57 -411 80 -595 40 -327 55 -435 125 -905 18 -126 43 -331 55 -455 11 -124 40 -423 65 -665 24 -242 47 -478 50 -525 10 -126 101 -529 171 -752 35 -114 133 -311 188 -380 91 -114 249 -226 357 -254 113 -29 262 -3 350 61 39 29 109 114 109 133 0 21 -25 13 -56 -19 -16 -16 -58 -50 -94 -74 -205 -140 -410 -72 -613 202 -83 114 -106 155 -161 288 -119 293 -192 656 -201 1010 -13 463 -113 1537 -179 1922 -23 130 -24 164 -22 400 3 223 7 279 30 413 75 447 249 835 537 1196 86 108 98 126 82 123 -5 -1 -19 -4 -33 -6z"/>
</g>
<g id="layer106" fill="#a2a3a2" stroke="none">
</g>
<g id="layer107" fill="#fafef9" stroke="none">
<path d="M3250 4709 c-55 -83 -66 -107 -75 -156 l-7 -43 101 0 101 0 -24 38 c-26 38 -53 166 -43 203 10 36 -13 19 -53 -42z"/>
<path d="M5787 4439 c-50 -57 -102 -145 -90 -152 5 -3 31 -8 59 -12 l51 -6 6 81 c3 48 11 90 21 105 18 28 20 35 7 35 -5 0 -30 -23 -54 -51z"/>
<path d="M3892 4363 c-27 -5 -25 -17 23 -113 29 -57 91 -140 105 -140 3 0 4 26 2 57 -2 39 3 77 17 115 22 64 25 60 -54 73 -22 3 -47 7 -55 9 -8 2 -25 1 -38 -1z"/>
<path d="M6236 4122 c-13 -13 -4 -45 38 -128 25 -49 60 -103 78 -121 l33 -32 1 112 c0 62 2 121 5 131 3 16 -3 21 -31 27 -60 12 -119 17 -124 11z"/>
<path d="M10805 3938 c17 -54 17 -135 1 -166 -15 -29 -15 -32 1 -40 10 -5 34 -12 54 -16 21 -4 53 -17 72 -30 l35 -24 13 25 c28 51 1 133 -63 191 -43 39 -103 82 -114 82 -3 0 -3 -10 1 -22z"/>
<path d="M8516 3893 c-23 -24 17 -133 72 -195 24 -26 47 -48 51 -48 4 0 8 44 9 97 1 54 5 106 8 115 5 15 -1 18 -40 18 -24 0 -56 4 -69 9 -14 6 -28 7 -31 4z"/>
<path d="M2696 2930 c-115 -14 -245 -50 -240 -65 3 -7 1 -22 -5 -33 -26 -48 -32 -155 -22 -392 10 -233 11 -240 55 -411 25 -96 58 -211 74 -257 l29 -83 61 83 c56 77 166 193 237 251 82 67 237 142 372 182 18 5 22 16 28 73 34 352 54 462 83 462 4 0 15 -13 24 -28 13 -22 16 -44 11 -102 -4 -59 0 -99 20 -185 14 -60 30 -135 36 -165 l12 -56 87 -28 c177 -57 346 -151 452 -252 l56 -54 42 228 c23 125 56 325 73 446 33 229 32 258 -8 273 -24 9 -59 36 -62 48 -6 27 -187 65 -311 65 -137 0 -299 -38 -411 -96 -28 -14 -35 -13 -125 21 -178 67 -400 96 -568 75z m374 -252 c31 -34 43 -93 38 -198 -4 -115 -26 -163 -74 -168 -60 -6 -94 64 -94 193 0 45 5 97 11 116 25 74 79 100 119 57z m614 3 c29 -32 45 -91 45 -166 1 -120 -29 -196 -78 -203 -52 -8 -91 79 -91 202 1 109 36 186 85 186 12 0 30 -9 39 -19z"/>
</g>
<g id="layer108" fill="#dcdcd4" stroke="none">
<path d="M3250 4709 c-55 -83 -66 -107 -75 -156 l-7 -43 101 0 101 0 -24 38 c-29 43 -59 195 -42 212 7 7 6 10 -2 10 -6 0 -30 -28 -52 -61z"/>
<path d="M4580 4613 c-29 -21 -66 -54 -82 -74 -34 -42 -60 -110 -48 -122 9 -10 160 -30 167 -23 3 2 0 13 -6 24 -25 46 -8 174 27 215 25 28 -1 19 -58 -20z"/>
<path d="M3876 4338 c22 -72 121 -228 144 -228 3 0 4 26 2 57 -2 39 3 77 17 115 22 65 25 61 -61 74 -40 5 -48 4 -48 -10 0 -9 -8 -16 -20 -16 -11 0 -20 7 -20 15 0 8 -5 15 -11 15 -6 0 -8 -9 -3 -22z"/>
<path d="M6924 4302 c-60 -39 -121 -112 -109 -131 3 -6 32 -11 63 -11 l57 0 18 67 c10 37 27 78 39 90 34 37 0 29 -68 -15z"/>
<path d="M5137 4166 c7 -91 33 -152 89 -207 l44 -43 0 111 c0 73 5 125 15 153 8 24 14 44 13 45 -2 2 -40 5 -85 7 l-82 4 6 -70z"/>
<path d="M8070 4179 c-59 -40 -118 -109 -107 -126 3 -5 37 -10 76 -11 l71 -3 0 29 c0 31 27 120 43 140 20 26 -22 11 -83 -29z"/>
<path d="M6236 4122 c-13 -13 -4 -45 38 -128 25 -49 60 -103 78 -121 l33 -32 1 112 c0 62 3 121 5 131 3 16 -3 21 -31 27 -60 12 -119 17 -124 11z"/>
<path d="M9062 4064 c-73 -55 -104 -97 -86 -113 5 -5 42 -11 82 -15 l72 -6 1 52 c2 66 4 87 13 116 4 12 4 22 -1 22 -4 0 -41 -25 -81 -56z"/>
<path d="M7380 3982 c0 -15 8 -42 18 -60 18 -34 122 -155 128 -150 2 2 -3 28 -11 58 -8 30 -15 79 -15 107 0 58 3 55 -82 67 -36 4 -38 3 -38 -22z"/>
<path d="M10319 3965 c-90 -53 -112 -76 -115 -115 -2 -29 -1 -30 44 -30 26 0 64 -3 85 -7 l38 -6 -1 64 c-2 87 -3 83 26 113 41 40 9 32 -77 -19z"/>
<path d="M10805 3938 c17 -54 17 -135 1 -166 -19 -36 -27 -30 79 -66 49 -17 112 -32 88 -20 -15 7 -17 71 -3 76 6 2 8 16 4 35 -4 18 -10 30 -15 27 -5 -3 -9 1 -9 8 0 22 -121 128 -145 128 -4 0 -4 -10 0 -22z"/>
<path d="M8540 3871 c0 -12 -6 -21 -15 -21 -8 0 -15 -5 -15 -11 0 -6 9 -9 19 -6 14 3 20 -2 24 -19 2 -14 0 -27 -6 -31 -6 -3 -7 -1 -3 5 4 7 2 12 -3 12 -13 0 -13 -2 -1 -34 10 -26 87 -116 99 -116 4 0 8 52 9 115 l3 115 -40 0 c-22 0 -46 3 -55 6 -12 4 -16 0 -16 -15z"/>
<path d="M9590 3729 c0 -25 -6 -67 -14 -92 -7 -25 -11 -48 -9 -51 12 -12 113 78 133 118 32 67 29 71 -45 71 l-65 0 0 -46z"/>
</g>
<g id="layer109" fill="#ecebde" stroke="none">
<path d="M3256 4718 c-20 -31 -30 -56 -24 -59 7 -5 7 -18 0 -40 -6 -19 -13 -51 -17 -71 l-6 -38 81 0 80 0 -24 38 c-29 43 -59 195 -42 212 7 7 6 10 -2 10 -7 0 -27 -24 -46 -52z"/>
<path d="M4595 4624 c-11 -8 -19 -22 -17 -29 2 -8 -9 -32 -23 -52 -24 -36 -61 -131 -54 -137 2 -2 31 -7 63 -11 55 -6 58 -6 50 12 -9 19 -11 134 -2 196 3 20 5 37 4 37 -1 0 -10 -7 -21 -16z"/>
<path d="M5787 4439 c-50 -57 -102 -145 -90 -152 5 -3 31 -8 59 -12 l51 -6 7 83 c4 46 7 88 8 95 1 7 7 14 15 17 15 6 18 26 4 26 -5 0 -30 -23 -54 -51z"/>
<path d="M3930 4349 c0 -23 27 -104 49 -146 21 -43 18 -65 -6 -35 -13 15 -13 15 -3 -5 6 -13 16 -20 24 -17 9 3 13 -1 13 -12 -1 -9 3 -18 8 -20 6 -3 9 18 7 53 -2 39 3 77 17 115 22 65 25 61 -61 74 -37 5 -48 3 -48 -7z"/>
<path d="M6919 4298 c-35 -22 -58 -43 -51 -45 21 -8 14 -36 -8 -30 -11 3 -23 1 -26 -4 -3 -5 0 -9 5 -9 6 0 11 -7 11 -16 0 -12 -6 -15 -21 -11 -13 3 -19 1 -16 -6 2 -7 29 -13 63 -15 l59 -3 18 68 c10 37 27 78 39 90 35 38 -1 28 -73 -19z"/>
<path d="M5183 4163 c3 -38 14 -90 24 -116 14 -37 15 -50 5 -56 -8 -5 -2 -17 23 -41 l35 -34 0 111 c0 73 5 125 15 153 8 23 15 44 15 46 0 2 -28 4 -61 4 l-62 0 6 -67z"/>
<path d="M8071 4179 c-63 -42 -99 -81 -81 -87 5 -2 10 -11 10 -19 0 -11 -6 -14 -21 -10 -12 3 -19 1 -16 -6 2 -6 35 -12 75 -15 l72 -4 0 29 c0 32 27 120 43 141 20 26 -22 11 -82 -29z"/>
<path d="M6269 4082 c11 -33 11 -46 2 -51 -17 -11 -2 -41 17 -34 14 4 14 3 3 -5 -12 -8 -10 -17 12 -54 14 -23 38 -55 54 -70 l28 -27 -3 95 c-2 53 1 108 7 126 6 17 8 35 4 39 -5 4 -37 12 -73 16 l-66 9 15 -44z"/>
<path d="M9087 4083 c-31 -23 -45 -39 -39 -45 7 -7 1 -23 -14 -45 -13 -20 -24 -39 -24 -43 0 -7 110 -24 115 -18 2 2 5 37 8 78 3 41 8 83 12 93 11 25 -5 21 -58 -20z"/>
<path d="M7383 3994 c0 -8 6 -13 13 -10 7 3 14 -7 18 -25 6 -33 4 -45 -7 -41 -15 5 11 -33 63 -91 29 -32 54 -56 56 -54 2 1 -3 27 -11 57 -8 30 -15 79 -15 107 0 57 2 55 -81 66 -27 4 -36 2 -36 -9z"/>
<path d="M10333 3974 c-39 -24 -59 -42 -56 -50 3 -8 -6 -27 -21 -44 -30 -36 -25 -60 13 -60 14 0 43 -3 63 -6 l38 -7 -1 64 c-1 87 -2 83 27 113 38 37 10 33 -63 -10z"/>
<path d="M10806 3933 c5 -16 9 -58 9 -96 0 -43 4 -66 11 -63 6 2 9 -7 7 -23 -4 -24 1 -28 49 -44 53 -18 114 -32 91 -21 -16 7 -17 71 -2 76 12 4 1 58 -12 58 -5 0 -9 6 -9 13 0 21 -121 127 -145 127 -4 0 -3 -12 1 -27z"/>
<path d="M8544 3851 c9 -61 10 -65 16 -71 3 -3 10 -15 17 -26 15 -27 5 -40 -13 -16 -7 9 -14 14 -14 9 0 -9 80 -97 89 -97 4 0 8 52 9 115 l3 115 -40 0 c-22 0 -47 3 -57 7 -15 6 -16 2 -10 -36z"/>
<path d="M9590 3730 c0 -26 -6 -68 -14 -93 -7 -25 -11 -48 -9 -51 3 -3 29 13 59 35 51 39 101 114 92 140 -2 5 -31 11 -66 13 l-62 2 0 -46z"/>
</g>


</svg>